<?xml version="1.0" standalone="no"?>
<!DOCTYPE svg PUBLIC "-//W3C//DTD SVG 20010904//EN"
 "http://www.w3.org/TR/2001/REC-SVG-20010904/DTD/svg10.dtd">
<svg version="1.0" xmlns="http://www.w3.org/2000/svg"
 width="310.000000pt" height="310.000000pt" viewBox="0 0 310.000000 310.000000"
 preserveAspectRatio="xMidYMid meet">
<metadata>
Created by potrace 1.11, written by Peter Selinger 2001-2013
</metadata>
<g transform="translate(0.000000,310.000000) scale(0.100000,-0.100000)"
fill="#000000" stroke="none">
<path d="M0 1550 l0 -1550 1550 0 1550 0 0 1550 0 1550 -1550 0 -1550 0 0
-1550z m1711 864 l159 -95 0 -275 c0 -151 -3 -273 -7 -271 -5 2 -150 48 -323
102 -173 54 -323 104 -332 112 -27 24 -42 81 -42 158 0 58 5 79 27 120 26 47
40 58 190 147 89 53 164 97 165 97 2 1 76 -42 163 -95z m-653 -216 c-33 -62
-33 -193 0 -259 22 -45 22 -51 20 -353 l-3 -307 -82 51 -83 51 0 379 0 379 83
50 c45 28 83 51 85 51 1 0 -8 -19 -20 -42z m1068 -9 l94 -50 0 -377 0 -377
-92 -51 c-51 -28 -94 -51 -95 -50 -1 1 7 21 19 45 33 66 31 170 -5 242 l-27
56 0 306 c0 169 3 307 6 307 4 0 49 -23 100 -51z m-560 -549 c205 -64 323
-105 331 -117 24 -32 35 -96 31 -184 -3 -75 -6 -91 -26 -112 -13 -13 -97 -68
-188 -121 l-164 -97 -160 93 -159 93 -1 273 c0 158 4 272 9 272 5 0 152 -45
327 -100z m-968 -806 c12 -8 22 -24 22 -35 0 -25 -14 -24 -32 3 -9 14 -20 19
-31 15 -28 -11 -19 -47 23 -93 49 -53 54 -94 14 -121 -24 -15 -29 -15 -53 -2
-16 9 -27 25 -29 42 -4 34 11 35 27 1 14 -31 45 -29 49 4 3 16 -9 37 -37 67
-48 52 -55 94 -19 119 12 9 27 16 33 16 6 0 21 -7 33 -16z m1774 4 c23 -19 33
-58 14 -58 -8 0 -18 9 -21 20 -12 37 -55 19 -55 -22 0 -5 18 -27 40 -49 40
-40 52 -84 32 -116 -15 -24 -59 -26 -81 -4 -24 24 -28 61 -6 61 8 0 15 -6 15
-14 0 -7 7 -19 15 -26 12 -10 18 -10 30 0 23 19 18 37 -25 84 -29 31 -40 52
-40 74 0 52 45 79 82 50z m-1972 -53 c0 -54 0 -55 30 -55 30 0 30 1 30 55 0
42 3 55 15 55 13 0 15 -20 15 -120 0 -100 -2 -120 -15 -120 -12 0 -15 13 -15
55 0 54 0 55 -30 55 l-30 0 0 -60 c0 -47 -3 -60 -15 -60 -13 0 -15 21 -15 125
0 104 2 125 15 125 12 0 15 -13 15 -55z m548 43 c16 -16 16 -200 0 -216 -7 -7
-31 -12 -55 -12 l-43 0 0 120 0 120 43 0 c24 0 48 -5 55 -12z m142 -3 c0 -11
-11 -15 -41 -15 l-40 0 3 -37 c3 -35 6 -38 36 -41 17 -2 32 -7 32 -12 0 -5
-15 -10 -32 -12 -31 -3 -33 -5 -33 -43 0 -39 1 -40 38 -43 24 -2 37 -8 37 -18
0 -10 -13 -14 -50 -14 l-50 0 0 125 0 125 50 0 c38 0 50 -4 50 -15z m65 -82
c20 -107 24 -106 45 20 9 52 17 77 26 77 17 0 18 8 -7 -127 -20 -104 -23 -113
-44 -113 -20 0 -24 8 -38 88 -9 48 -19 102 -23 120 -5 24 -3 32 8 32 10 0 20
-28 33 -97z m205 82 c0 -10 -11 -15 -35 -15 -34 0 -35 -1 -35 -40 0 -38 2 -40
30 -40 17 0 30 -4 30 -10 0 -5 -13 -10 -30 -10 -29 0 -30 -2 -30 -45 0 -45 0
-45 35 -45 24 0 35 -5 35 -15 0 -11 -12 -15 -50 -15 l-50 0 0 125 0 125 50 0
c38 0 50 -4 50 -15z m52 -92 l3 -108 33 -3 c48 -5 39 -22 -13 -22 l-45 0 0
120 c0 151 18 161 22 13z m186 95 c8 -8 12 -48 12 -115 0 -102 0 -104 -26
-113 -35 -14 -41 -13 -64 10 -17 17 -20 33 -20 106 0 47 5 94 10 105 12 22 68
27 88 7z m140 0 c12 -12 16 -85 6 -112 -3 -8 -21 -18 -40 -22 -33 -6 -34 -8
-34 -50 0 -32 -4 -44 -15 -44 -12 0 -15 20 -15 120 l0 120 43 0 c24 0 48 -5
55 -12z m192 2 c0 -5 -11 -10 -24 -10 -14 0 -32 -7 -40 -16 -19 -18 -19 -20
-6 -45 11 -20 50 -27 50 -9 0 14 27 12 32 -2 3 -7 3 -44 0 -81 -4 -55 -7 -67
-21 -66 -9 1 -24 -1 -33 -5 -9 -4 -26 -3 -37 4 -17 8 -21 20 -21 58 0 27 5 53
11 59 8 8 8 13 0 17 -15 10 -14 79 1 94 14 14 88 16 88 2z m200 -9 c13 -25 13
-177 0 -202 -8 -15 -22 -19 -60 -19 l-50 0 0 120 0 120 50 0 c38 0 52 -4 60
-19z m140 4 c0 -11 -11 -15 -41 -15 l-40 0 3 -37 c3 -33 7 -38 31 -41 37 -4
35 -22 -3 -22 -29 0 -30 -2 -30 -45 0 -45 0 -45 35 -45 24 0 35 -5 35 -15 0
-11 -12 -15 -50 -15 l-50 0 0 125 0 125 55 0 c42 0 55 -3 55 -15z m180 -105
c0 -100 -2 -120 -15 -120 -12 0 -15 20 -15 120 0 100 3 120 15 120 13 0 15
-20 15 -120z m117 112 c7 -4 16 -22 19 -40 5 -25 3 -32 -8 -32 -9 0 -18 13
-21 30 -7 31 -25 38 -45 18 -18 -18 -16 -162 3 -178 21 -18 45 4 45 41 0 19
-5 29 -15 29 -8 0 -15 7 -15 15 0 10 10 15 30 15 29 0 30 -1 30 -48 0 -63 -22
-94 -63 -90 -46 4 -58 36 -55 134 2 50 8 87 17 97 14 18 57 22 78 9z m106 -64
l25 -73 1 73 c1 57 4 72 16 72 13 0 15 -20 15 -120 0 -110 -2 -120 -18 -120
-15 0 -24 18 -44 83 l-26 82 -1 -82 c-1 -67 -4 -83 -16 -83 -12 0 -15 20 -15
120 0 112 1 120 19 120 15 0 25 -16 44 -72z m-1903 -48 c0 -5 -16 -10 -35 -10
-19 0 -35 5 -35 10 0 6 16 10 35 10 19 0 35 -4 35 -10z"/>
<path d="M880 720 c0 -93 1 -100 20 -100 10 0 24 10 31 21 16 30 8 157 -11
169 -36 23 -40 12 -40 -90z"/>
<path d="M1541 806 c-8 -9 -11 -45 -9 -97 3 -73 5 -84 22 -87 28 -6 36 15 36
99 0 88 -19 121 -49 85z"/>
<path d="M1670 769 c0 -47 2 -50 23 -47 18 2 23 10 25 42 3 38 -8 56 -35 56
-9 0 -13 -17 -13 -51z"/>
<path d="M1864 696 c-3 -8 -4 -27 -2 -43 2 -20 9 -29 26 -31 20 -3 22 1 22 42
0 40 -3 46 -20 46 -11 0 -23 -6 -26 -14z"/>
<path d="M2054 807 c-3 -8 -4 -52 -2 -98 3 -82 4 -84 28 -84 25 0 25 1 28 89
2 65 -1 92 -10 98 -19 12 -38 10 -44 -5z"/>
</g>
</svg>
