<svg xmlns="http://www.w3.org/2000/svg" width="120" height="120" viewBox="0 0 120 120" id="desktop-logo">
  <path d="M68.083 51.84l-18.105-5.71c-.835-.836-1.392-2.647-1.392-4.736 0-1.95.975-3.76 1.81-4.735l8.913-5.293 8.773 5.292v15.18zM41.623 41.81v20.612l4.874 2.924v-16.99c-.836-.975-1.393-2.786-1.393-4.736 0-2.09.696-3.76 1.532-4.735l-5.014 2.925zm8.773 10.863v15.04l8.913 5.293 8.91-5.292c1.667-.975 1.667-2.646 1.667-4.735 0-2.088-.41-3.76-1.247-4.734l-18.244-5.57zM72.26 38.748v17.13c.837.975 1.672 2.785 1.672 4.735 0 2.09-.557 3.76-1.392 4.735l5.43-2.924V41.812l-5.71-3.064z" id="logo" fill="none" stroke="#000" stroke-width="1.393" stroke-miterlimit="10"/>
  <path d="M61.323 88.108a1.508 1.508 0 1 1-3.015 0 1.508 1.508 0 1 1 3.015 0z" id="button" fill="#1a1a1a" stroke="#ff32c0" stroke-opacity="0" stroke-width=".29581"/>
  <path d="M104.315 80.91H6.093V24.126H114.29v71.748H6.093V87.05l-.383.767" id="desktop" fill="none" stroke="#000" stroke-width="1.393"/>
</svg>
