<svg xmlns="http://www.w3.org/2000/svg" width="100%" height="100%" id="devices" viewBox="0 0 300 105">
  <g id="hero-desktop" opacity="0">
    <path d="M79.288 39.114L57.434 32.22c-1.007-1.007-1.68-3.193-1.68-5.714 0-2.354 1.177-4.54 2.185-5.716l10.757-6.39 10.59 6.388V39.11zM47.35 27.008v24.88l5.883 3.53v-20.51c-1.01-1.176-1.683-3.362-1.683-5.715 0-2.523.84-4.54 1.85-5.716l-6.053 3.53zM57.94 40.12v18.153l10.757 6.39 10.755-6.39c2.012-1.176 2.012-3.193 2.012-5.714 0-2.523-.495-4.54-1.505-5.716L57.94 40.12zm26.39-16.81v20.677c1.01 1.177 2.018 3.362 2.018 5.716 0 2.523-.672 4.538-1.68 5.715l6.554-3.53v-24.88L84.33 23.31z" id="desk-logo" fill="none" stroke="#fe2f2b" stroke-width="1.681" stroke-miterlimit="10"/>
    <path d="M123.02 74.203H4.465V5.663h130.598v86.602H4.464v-10.65L4 82.54" id="desk-frame" fill="none" stroke="#fe2f2b" stroke-width="1.681"/>
    <path d="M70.462 81.43c0 .876-.71 1.585-1.584 1.585-.874 0-1.583-.71-1.583-1.584 0-.874.71-1.583 1.584-1.583.874 0 1.583.71 1.583 1.584z" id="desk-btn" fill="#fe2f2b" stroke="#fe2f2b" stroke-width=".311" stroke-opacity="0"/>
  </g>
  <g id="hero-laptop" opacity="0">
    <path d="M139.494 89.348v-63.02h102.192v70.686h-116.67v5.96h131.15v-5.962h-10.22" id="lap-frame" fill="none" stroke="#fe2f2b" stroke-width="1.686"/>
    <path d="M191.774 29.555c0 .654-.53 1.184-1.184 1.184-.654 0-1.184-.53-1.184-1.185 0-.654.53-1.185 1.184-1.185.654 0 1.184.53 1.184 1.184z" id="lap-btn" fill="#fe2f2b" stroke="#fe2f2b" stroke-width=".232" stroke-opacity="0"/>
    <path d="M199.938 64.26l-20.423-6.44c-.94-.946-1.57-2.987-1.57-5.344 0-2.2 1.1-4.24 2.042-5.34l10.055-5.972 9.897 5.97v17.124zm-29.85-11.31v23.247l5.5 3.3V60.33c-.942-1.1-1.57-3.14-1.57-5.34 0-2.358.785-4.24 1.728-5.34l-5.657 3.3zm9.898 12.25v16.967l10.055 5.972 10.054-5.97c1.88-1.1 1.88-2.986 1.88-5.34 0-2.36-.463-4.244-1.406-5.344l-20.582-6.284zm24.665-15.71v19.324c.944 1.1 1.885 3.143 1.885 5.343 0 2.357-.626 4.24-1.567 5.34l6.126-3.297V52.95l-6.443-3.46z" id="lap-logo" fill="none" stroke="#fe2f2b" stroke-width="1.571" stroke-miterlimit="10"/>
    <path d="M172.374 97.546v2.107h36.432v-2.56" id="lap-btn1" fill="none" stroke="#fe2f2b" stroke-width="1.686"/>
    <path d="M248.596 98.888h3.764v.94h-3.764z" id="lap-btn2" stroke="#fe2f2b" fill="#fe2f2b" stroke-width=".746" stroke-opacity="0"/>
  </g>
  <g id="hero-phone" opacity="0">
    <path d="M263.492 13.79h11.612" id="phone-earpiece" fill="none" stroke="#fe2f2b" stroke-width="1.822" stroke-miterlimit="10"/>
    <path d="M270.517 85.13c0 .675-.545 1.22-1.22 1.22-.673 0-1.218-.545-1.218-1.22 0-.672.544-1.217 1.22-1.217.672 0 1.217.545 1.217 1.22z" id="phone-btn" fill="#fe2f2b" stroke="#fe2f2b" stroke-width=".239" stroke-opacity="0"/>
    <path d="M275.146 50.85l-12.776-4.03c-.59-.59-.982-1.868-.982-3.34 0-1.378.688-2.655 1.277-3.343l6.29-3.735 6.192 3.736v10.71zm-18.67-7.077v14.543l3.438 2.065V48.39c-.59-.686-.982-1.964-.982-3.34 0-1.474.49-2.653 1.08-3.34l-3.537 2.063zm6.19 7.665V62.05l6.288 3.735 6.29-3.734c1.174-.686 1.174-1.865 1.174-3.34 0-1.474-.29-2.653-.88-3.34l-12.873-3.932zm15.428-9.827V53.7c.59.688 1.178 1.966 1.178 3.342 0 1.473-.392 2.652-.98 3.34l3.83-2.063V43.774l-4.028-2.163z" id="phone-logo" fill="none" stroke="#fe2f2b" stroke-width="1.196" stroke-miterlimit="10"/>
    <path d="M292.622 17.98V10.1h-46.648v11.82h46.354v57.7-.563" id="phone-frame" fill="none" stroke="#fe2f2b" stroke-width="1.435"/>
    <path d="M246.426 25.513v56.593h46.33v9.97H245.84V85.33" id="phone-frame2" fill="none" stroke="#fe2f2b" stroke-width="1.435"/>
  </g>
</svg>
