<svg xmlns="http://www.w3.org/2000/svg" width="460" height="200" id="hero">
  <g id="design" font-size="62.493" font-weight="bold" letter-spacing="0" word-spacing="0" font-family="sans">
    <path d="M18.86 20.045v37.53h5.686c6.482 0 11.426-1.605 14.832-4.82 3.433-3.212 5.15-7.88 5.15-14.006 0-6.098-1.704-10.74-5.11-13.926-3.405-3.186-8.362-4.78-14.872-4.78H18.86M3 8.058h16.726c9.338 0 16.287.673 20.846 2.018 4.587 1.32 8.514 3.57 11.783 6.757 2.884 2.774 5.026 5.974 6.427 9.6 1.4 3.624 2.1 7.73 2.1 12.317 0 4.64-.7 8.788-2.1 12.44-1.4 3.626-3.543 6.826-6.427 9.6-3.296 3.186-7.25 5.452-11.865 6.797-4.614 1.32-11.535 1.978-20.764 1.978H3V8.057" id="path3006" style="line-height:125%;-inkscape-font-specification:sans"/>
    <path d="M73.036 8.057h42.805v11.988H88.898v11.453h25.337v11.99H88.897v14.088h27.85v11.99h-43.71V8.055" id="path3008" style="line-height:125%;-inkscape-font-specification:sans"/>
    <path d="M173.517 9.993V23.01c-3.378-1.51-6.674-2.65-9.887-3.418-3.214-.77-6.248-1.153-9.105-1.153-3.79 0-6.59.52-8.404 1.564-1.812 1.044-2.718 2.664-2.718 4.86 0 1.65.604 2.94 1.813 3.874 1.235.906 3.46 1.69 6.674 2.348l6.755 1.36c6.84 1.373 11.7 3.46 14.584 6.262 2.883 2.8 4.325 6.784 4.325 11.947 0 6.784-2.02 11.838-6.056 15.16-4.01 3.297-10.15 4.945-18.417 4.945-3.9 0-7.814-.37-11.74-1.113-3.93-.74-7.856-1.84-11.784-3.296V52.963c3.927 2.088 7.717 3.667 11.37 4.738 3.68 1.044 7.223 1.565 10.63 1.565 3.46 0 6.11-.576 7.95-1.73 1.84-1.153 2.76-2.8 2.76-4.944 0-1.92-.63-3.404-1.895-4.448-1.236-1.044-3.72-1.977-7.456-2.8l-6.14-1.36c-6.152-1.32-10.656-3.42-13.513-6.304-2.83-2.884-4.243-6.77-4.243-11.66 0-6.124 1.977-10.834 5.932-14.13 3.955-3.296 9.64-4.944 17.056-4.944 3.378 0 6.853.26 10.423.783 3.57.495 7.265 1.25 11.082 2.266" id="path3010" style="line-height:125%;-inkscape-font-specification:sans"/>
    <path d="M191.52 8.057h15.862v61.508h-15.86V8.057" id="path3012" style="line-height:125%;-inkscape-font-specification:sans"/>
    <path d="M278.283 64.992c-3.955 1.923-8.06 3.364-12.318 4.326-4.257.96-8.65 1.442-13.183 1.442-10.245 0-18.36-2.857-24.348-8.57-5.987-5.74-8.98-13.512-8.98-23.317 0-9.915 3.047-17.715 9.145-23.4 6.096-5.686 14.445-8.53 25.047-8.53 4.092 0 8.006.386 11.74 1.155 3.764.77 7.307 1.91 10.63 3.42v12.73c-3.433-1.95-6.852-3.406-10.258-4.368-3.38-.96-6.77-1.44-10.177-1.44-6.317 0-11.192 1.77-14.625 5.313-3.406 3.516-5.108 8.555-5.108 15.12 0 6.51 1.647 11.535 4.943 15.078 3.296 3.544 7.98 5.315 14.05 5.315 1.647 0 3.17-.096 4.572-.288 1.428-.22 2.705-.55 3.83-.99V46.042h-9.68V35.413h24.718v29.58" id="path3014" style="line-height:125%;-inkscape-font-specification:sans"/>
    <path d="M292.208 8.057h17.715l22.37 42.186V8.057h15.038v61.508h-17.714l-22.37-42.187v42.187h-15.038V8.057" id="path3016" style="line-height:125%;-inkscape-font-specification:sans"/>
  </g>
  <path d="M367.813 45.59c-2.107 1.876-3.658 3.752-4.654 5.628-.974 1.852-1.46 3.797-1.46 5.835 0 3.38 1.227 6.194 3.682 8.44 2.454 2.247 5.534 3.37 9.24 3.37 2.2 0 4.26-.36 6.182-1.077 1.922-.74 3.728-1.853 5.418-3.335l-18.41-18.86m4.9-3.89l17.644 18.062c1.366-2.06 2.43-4.26 3.195-6.6.765-2.36 1.217-4.862 1.356-7.502h6.46c-.278 3.057-1.02 6.08-2.223 9.066-1.204 2.987-2.883 5.94-5.036 8.857l9.69 9.9h-8.752l-4.967-5.107c-2.41 2.06-4.933 3.6-7.572 4.62-2.64.996-5.477 1.494-8.51 1.494-5.58 0-10.143-1.587-13.685-4.76-3.542-3.195-5.314-7.282-5.314-12.26 0-2.964.776-5.743 2.327-8.336 1.552-2.617 3.88-5.07 6.982-7.364-1.11-1.46-1.957-2.906-2.536-4.342-.58-1.458-.87-2.883-.87-4.272 0-3.75 1.286-6.762 3.857-9.03 2.57-2.293 5.985-3.44 10.246-3.44 1.922 0 3.832.21 5.73.626 1.923.417 3.868 1.042 5.837 1.875v6.322c-2.015-1.09-3.937-1.91-5.766-2.467-1.83-.58-3.532-.868-5.106-.87-2.432.002-4.41.65-5.94 1.947-1.505 1.273-2.257 2.93-2.257 4.967 0 1.18.336 2.373 1.008 3.577.695 1.18 2.095 2.86 4.203 5.037" id="and" style="line-height:125%;-inkscape-font-specification:Sans" font-size="52.688" letter-spacing="0" word-spacing="0" font-family="Sans"/>
  <g id="develop">
    <g id="g4250" font-size="62.493" font-weight="bold" letter-spacing="0" word-spacing="0" font-family="Sans">
      <path d="M18.86 93.872v37.53h5.686c6.482 0 11.426-1.606 14.832-4.82 3.433-3.213 5.15-7.882 5.15-14.007 0-6.097-1.704-10.738-5.11-13.924-3.405-3.185-8.362-4.778-14.872-4.778H18.86M3 81.882h16.726c9.338 0 16.287.674 20.846 2.02 4.587 1.318 8.514 3.57 11.783 6.756 2.884 2.774 5.026 5.974 6.427 9.6 1.4 3.625 2.1 7.73 2.1 12.317 0 4.642-.7 8.79-2.1 12.442-1.4 3.625-3.543 6.825-6.427 9.6-3.296 3.185-7.25 5.45-11.865 6.797-4.614 1.318-11.535 1.977-20.764 1.977H3V81.884" id="path3100" style="line-height:125%;-inkscape-font-specification:Sans Bold"/>
      <path d="M73.036 81.883h42.805v11.99H88.898v11.452h25.337v11.988H88.897v14.09h27.85v11.988h-43.71V81.884" id="path3102" style="line-height:125%;-inkscape-font-specification:Sans Bold"/>
      <path d="M123.38 81.883h15.943l16.315 45.4 16.273-45.4h15.944l-22.782 61.508h-18.91L123.38 81.884" id="path3104" style="line-height:125%;-inkscape-font-specification:Sans Bold"/>
      <path d="M195.97 81.883h42.805v11.99H211.83v11.452h25.338v11.988H211.83v14.09h27.85v11.988h-43.71V81.884" id="path3106" style="line-height:125%;-inkscape-font-specification:Sans Bold"/>
      <path d="M253.647 81.883h15.86v49.52h27.85v11.988h-43.71V81.884" id="path3108" style="line-height:125%;-inkscape-font-specification:Sans Bold"/>
      <path d="M332.5 92.265c-4.834 0-8.583 1.785-11.248 5.356-2.664 3.57-3.996 8.597-3.996 15.08 0 6.453 1.332 11.466 3.996 15.036 2.665 3.57 6.414 5.356 11.247 5.356 4.86 0 8.623-1.785 11.288-5.356 2.664-3.57 3.996-8.583 3.996-15.037 0-6.483-1.332-11.51-3.996-15.08-2.665-3.57-6.427-5.355-11.29-5.355m0-11.494c9.89 0 17.634 2.83 23.237 8.487 5.603 5.658 8.404 13.472 8.404 23.442 0 9.94-2.802 17.74-8.405 23.4-5.603 5.657-13.348 8.486-23.236 8.486-9.86 0-17.606-2.83-23.236-8.487-5.603-5.66-8.404-13.46-8.404-23.4 0-9.97 2.8-17.785 8.404-23.443 5.63-5.657 13.375-8.486 23.235-8.486" id="path3110" style="line-height:125%;-inkscape-font-specification:Sans Bold"/>
      <path d="M376.075 81.885V143.4h15.864v-21.35H402.4c2.625 0 5.043-.2 7.257-.59l16.664-23.965c-.777-4.3-2.735-7.767-5.906-10.38-4.175-3.487-10.188-5.23-18.016-5.23h-26.327zM391.94 93.36h8.774c3.076 0 5.455.754 7.13 2.237 1.676 1.483 2.532 3.582 2.532 6.328 0 2.747-.856 4.903-2.53 6.414-1.677 1.482-4.056 2.235-7.132 2.235h-8.775V93.36z" id="path3112" style="line-height:125%;-inkscape-font-specification:Sans Bold"/>
    </g>
    <path d="M356.183 196.325l99.56-142.52" id="path3895" fill="none" stroke="#000" stroke-width="1.35012"/>
  </g>
  <g id="tagline" font-size="12" letter-spacing="0" word-spacing="0" font-family="Sans">
    <path d="M196.842 149.027h1.598v11.81h-1.598v-11.81" id="path3899" style="line-height:125%"/>
    <path d="M213.075 156.416c0-1.07-.22-1.91-.664-2.516-.437-.61-1.04-.917-1.81-.917s-1.378.306-1.82.917c-.438.607-.657 1.445-.657 2.516 0 1.07.22 1.912.656 2.523.442.606 1.05.91 1.82.91s1.373-.304 1.81-.91c.444-.612.665-1.453.665-2.524m-4.952-3.093c.306-.528.69-.918 1.155-1.17.47-.26 1.028-.39 1.677-.39 1.076 0 1.95.43 2.618 1.283.675.854 1.013 1.978 1.013 3.37 0 1.392-.338 2.516-1.013 3.37-.67.854-1.542 1.28-2.618 1.28-.65 0-1.208-.125-1.677-.378-.464-.26-.85-.652-1.155-1.18v1.33h-1.464v-12.31h1.463v4.795" id="path3901" style="line-height:125%"/>
    <path d="M222.133 153.34c-.164-.096-.343-.165-.538-.207-.19-.047-.4-.072-.633-.072-.823 0-1.455.27-1.898.808-.438.533-.657 1.3-.657 2.302v4.668h-1.464v-8.86h1.464v1.376c.306-.538.704-.936 1.195-1.194.49-.264 1.086-.396 1.787-.396.1 0 .21.014.332.024.12.014.255.03.403.056l.008 1.495" id="path3903" style="line-height:125%"/>
    <path d="M230.906 156.044v.712h-6.692c.063 1.002.363 1.767.9 2.294.545.522 1.3.783 2.264.783.56 0 1.1-.07 1.622-.205.527-.137 1.05-.343 1.566-.617v1.377c-.522.222-1.058.39-1.606.506-.548.117-1.105.174-1.67.174-1.413 0-2.533-.41-3.36-1.234-.824-.822-1.235-1.935-1.235-3.338 0-1.45.39-2.6 1.17-3.45.786-.853 1.844-1.28 3.173-1.28 1.192 0 2.133.384 2.824 1.154.696.764 1.044 1.806 1.044 3.124m-1.456-.427c-.01-.796-.234-1.432-.672-1.907-.432-.474-1.007-.71-1.724-.712-.813 0-1.464.23-1.954.69-.486.458-.765 1.104-.84 1.937l5.19-.014" id="path3905" style="line-height:125%"/>
    <path d="M237.322 156.384c-1.176 0-1.99.135-2.445.404-.453.27-.68.728-.68 1.376 0 .517.17.928.506 1.234.343.3.807.45 1.393.45.806 0 1.453-.284 1.938-.853.49-.575.735-1.337.735-2.286v-.326h-1.448m2.903-.6v5.054h-1.456v-1.345c-.333.538-.747.936-1.243 1.195-.495.253-1.102.38-1.82.38-.906 0-1.63-.254-2.167-.76-.532-.512-.8-1.195-.8-2.05 0-.996.334-1.747.998-2.253.67-.507 1.667-.76 2.99-.76h2.04v-.142c0-.67-.22-1.187-.663-1.55-.438-.37-1.055-.554-1.85-.555-.507 0-1 .06-1.48.182s-.942.304-1.385.546v-1.345c.533-.204 1.05-.357 1.55-.457.502-.106.99-.16 1.464-.16 1.282 0 2.24.334 2.872.998.633.666.95 1.673.95 3.023" id="path3907" style="line-height:125%"/>
    <path d="M244.67 149.462v2.516h3v1.13h-3v4.81c0 .723.1 1.188.294 1.393.2.207.603.31 1.21.31h1.495v1.218h-1.496c-1.123 0-1.9-.208-2.326-.625-.427-.422-.64-1.186-.64-2.294v-4.81h-1.07v-1.132h1.07v-2.516h1.463" id="path3909" style="line-height:125%"/>
    <path d="M256.956 155.49v5.348H255.5v-5.3c0-.84-.163-1.466-.49-1.883-.327-.417-.817-.625-1.47-.625-.787 0-1.407.25-1.86.752-.454.5-.68 1.184-.68 2.05v5.006h-1.464v-12.31H251v4.826c.348-.532.756-.93 1.226-1.194.474-.264 1.02-.396 1.637-.396 1.018 0 1.788.317 2.31.95.522.627.783 1.553.783 2.776" id="path3911" style="line-height:125%"/>
    <path d="M267.454 156.044v.712h-6.692c.063 1.002.363 1.767.9 2.294.545.522 1.3.783 2.264.783.56 0 1.1-.07 1.622-.205.527-.137 1.05-.343 1.566-.617v1.377c-.522.222-1.057.39-1.606.506-.548.117-1.105.174-1.67.174-1.413 0-2.533-.41-3.36-1.234-.824-.822-1.235-1.935-1.235-3.338 0-1.45.39-2.6 1.17-3.45.786-.853 1.844-1.28 3.173-1.28 1.192 0 2.133.384 2.824 1.154.696.764 1.044 1.806 1.044 3.124m-1.455-.427c-.012-.796-.236-1.432-.674-1.907-.432-.474-1.007-.71-1.724-.712-.813 0-1.464.23-1.954.69-.486.458-.765 1.104-.84 1.937l5.19-.014" id="path3913" style="line-height:125%"/>
    <path d="M279.028 156.384c-1.176 0-1.99.135-2.445.404-.453.27-.68.728-.68 1.376 0 .517.17.928.506 1.234.342.3.806.45 1.39.45.808 0 1.454-.284 1.94-.853.49-.575.735-1.337.735-2.286v-.326h-1.447m2.903-.6v5.054h-1.455v-1.345c-.332.538-.746.936-1.242 1.195-.495.253-1.102.38-1.82.38-.906 0-1.63-.254-2.167-.76-.532-.512-.8-1.195-.8-2.05 0-.996.334-1.747.998-2.253.67-.507 1.667-.76 2.99-.76h2.04v-.142c0-.67-.22-1.187-.663-1.55-.437-.37-1.054-.554-1.85-.555-.507 0-1 .06-1.48.182s-.94.304-1.384.546v-1.345c.533-.204 1.05-.357 1.55-.457.502-.106.99-.16 1.464-.16 1.282 0 2.24.334 2.872.998.632.666.95 1.673.95 3.023" id="path3915" style="line-height:125%"/>
    <path d="M292.302 155.49v5.348h-1.456v-5.3c0-.84-.163-1.466-.49-1.883-.327-.417-.817-.625-1.47-.625-.787 0-1.407.25-1.86.752-.454.5-.68 1.184-.68 2.05v5.006h-1.464v-8.86h1.463v1.376c.348-.532.757-.93 1.226-1.194.476-.264 1.022-.396 1.64-.396 1.017 0 1.787.317 2.31.95.52.627.782 1.553.782 2.776" id="path3917" style="line-height:125%"/>
    <path d="M301.05 153.323v-4.794h1.457v12.308h-1.456v-1.33c-.304.528-.692.92-1.16 1.18-.466.253-1.025.38-1.68.38-1.07 0-1.942-.428-2.617-1.282-.67-.854-1.005-1.978-1.005-3.37 0-1.392.335-2.516 1.005-3.37.675-.854 1.548-1.282 2.618-1.282.655 0 1.214.13 1.68.388.468.253.856.643 1.16 1.17m-4.96 3.094c0 1.07.22 1.912.658 2.523.443.606 1.05.91 1.82.91s1.376-.304 1.82-.91c.442-.612.663-1.453.663-2.524 0-1.07-.22-1.91-.663-2.516-.443-.61-1.05-.917-1.82-.917s-1.376.306-1.82.917c-.437.607-.656 1.445-.656 2.516" id="path3919" style="line-height:125%"/>
    <path d="M316.31 152.24v1.376c-.41-.21-.837-.37-1.28-.475-.443-.104-.902-.157-1.377-.157-.722 0-1.265.11-1.63.332-.358.22-.537.554-.537.997 0 .337.13.604.387.8.26.188.778.37 1.56.544l.497.11c1.034.223 1.767.537 2.2.943.437.4.656.96.656 1.684 0 .822-.327 1.474-.98 1.954-.65.48-1.543.72-2.683.72-.474 0-.97-.048-1.487-.143-.51-.09-1.052-.227-1.622-.41v-1.504c.538.28 1.068.49 1.59.634.523.137 1.04.205 1.55.205.687 0 1.214-.117 1.583-.35.37-.236.554-.568.554-.996 0-.395-.134-.698-.403-.91-.263-.21-.846-.413-1.748-.608l-.507-.12c-.902-.19-1.553-.48-1.954-.87-.402-.395-.602-.936-.602-1.62 0-.834.295-1.478.886-1.93.59-.455 1.43-.682 2.515-.682.537 0 1.044.04 1.518.12.475.08.913.197 1.313.355" id="path3921" style="line-height:125%"/>
    <path d="M322.545 152.998c-.78 0-1.397.306-1.85.918-.455.607-.68 1.44-.68 2.5s.223 1.896.67 2.508c.455.606 1.074.91 1.86.91.775 0 1.39-.306 1.843-.918.454-.612.68-1.445.68-2.5 0-1.05-.226-1.88-.68-2.492-.453-.617-1.068-.925-1.843-.926m0-1.234c1.266 0 2.26.412 2.983 1.234.722.823 1.083 1.962 1.083 3.418 0 1.45-.36 2.59-1.082 3.417-.723.823-1.717 1.234-2.983 1.234-1.27 0-2.268-.41-2.99-1.234-.717-.828-1.076-1.967-1.076-3.417 0-1.456.358-2.595 1.075-3.418.722-.822 1.72-1.234 2.99-1.234" id="path3923" style="line-height:125%"/>
    <path d="M334.237 149.027h1.598v11.81h-1.598v-11.81" id="path3925" style="line-height:125%"/>
    <path d="M350.486 152.318v1.36c-.41-.226-.825-.395-1.242-.505-.41-.117-.828-.174-1.25-.175-.944 0-1.677.3-2.2.902-.52.596-.782 1.435-.782 2.516 0 1.08.26 1.922.783 2.523.522.595 1.255.893 2.2.893.42 0 .838-.055 1.25-.166.416-.116.83-.287 1.24-.514v1.345c-.405.19-.827.332-1.265.427-.432.095-.893.142-1.384.142-1.334 0-2.394-.42-3.18-1.257-.786-.84-1.18-1.97-1.18-3.394 0-1.445.397-2.582 1.188-3.41.796-.828 1.885-1.242 3.267-1.242.45 0 .887.048 1.314.143.427.09.84.227 1.242.41" id="path3927" style="line-height:125%"/>
    <path d="M356.467 152.998c-.78 0-1.398.306-1.85.918-.455.607-.682 1.44-.682 2.5s.224 1.896.673 2.508c.453.606 1.073.91 1.86.91.774 0 1.388-.306 1.842-.918.454-.612.68-1.445.68-2.5 0-1.05-.226-1.88-.68-2.492-.454-.617-1.068-.925-1.843-.926m0-1.234c1.266 0 2.26.412 2.982 1.234.722.823 1.083 1.962 1.083 3.418 0 1.45-.36 2.59-1.084 3.417-.723.823-1.717 1.234-2.983 1.234-1.27 0-2.268-.41-2.99-1.234-.718-.828-1.076-1.967-1.076-3.417 0-1.456.36-2.595 1.077-3.418.722-.822 1.72-1.234 2.99-1.234" id="path3929" style="line-height:125%"/>
    <path d="M368.768 153.323v-4.794h1.456v12.308h-1.456v-1.33c-.306.528-.693.92-1.163 1.18-.464.253-1.023.38-1.677.38-1.07 0-1.943-.428-2.618-1.282-.67-.854-1.005-1.978-1.005-3.37 0-1.392.335-2.516 1.005-3.37.675-.854 1.548-1.282 2.618-1.282.654 0 1.213.13 1.677.388.47.253.857.643 1.163 1.17m-4.96 3.094c0 1.07.22 1.912.657 2.523.443.606 1.05.91 1.82.91s1.376-.304 1.82-.91c.442-.612.663-1.453.663-2.524 0-1.07-.22-1.91-.664-2.516-.443-.61-1.05-.917-1.82-.917s-1.376.306-1.82.917c-.437.607-.656 1.445-.656 2.516" id="path3931" style="line-height:125%"/>
    <path d="M380.8 156.044v.712h-6.692c.063 1.002.364 1.767.902 2.294.543.522 1.297.783 2.262.783.56 0 1.1-.07 1.622-.205.527-.137 1.05-.343 1.566-.617v1.377c-.522.222-1.057.39-1.606.506-.548.117-1.104.174-1.67.174-1.412 0-2.533-.41-3.36-1.234-.824-.822-1.235-1.935-1.235-3.338 0-1.45.39-2.6 1.17-3.45.786-.853 1.843-1.28 3.172-1.28 1.192 0 2.133.384 2.824 1.154.696.764 1.045 1.806 1.045 3.124m-1.455-.427c-.01-.796-.235-1.432-.672-1.907-.433-.474-1.008-.71-1.725-.712-.812 0-1.464.23-1.954.69-.485.458-.765 1.104-.84 1.937l5.19-.014" id="path3933" style="line-height:125%"/>
  </g>
</svg>
