<svg xmlns="http://www.w3.org/2000/svg" width="100%" height="100%" id="hero" viewBox="0 0 500 200">
  <path d="m 494.85907,95.917214 -1.79214,0.171964" id="hero-sep" fill="#ffffff" stroke="#fe2f2b" stroke-width="1.801"/>
  <path d="M369.813 47.328c-2.107 1.876-3.658 3.752-4.654 5.628-.975 1.852-1.46 3.797-1.46 5.835 0 3.38 1.226 6.195 3.68 8.44 2.455 2.248 5.535 3.37 9.24 3.37 2.2 0 4.26-.36 6.183-1.076 1.922-.74 3.728-1.853 5.418-3.335l-18.41-18.86m4.9-3.89l17.645 18.06c1.366-2.06 2.43-4.26 3.195-6.6.765-2.36 1.217-4.86 1.356-7.5h6.46c-.278 3.056-1.02 6.08-2.223 9.065-1.204 2.987-2.883 5.94-5.036 8.857l9.69 9.9h-8.752l-4.967-5.107c-2.41 2.06-4.933 3.6-7.572 4.62-2.64.996-5.477 1.494-8.51 1.494-5.58 0-10.143-1.588-13.685-4.76-3.54-3.196-5.313-7.283-5.313-12.26 0-2.965.776-5.744 2.327-8.337 1.552-2.617 3.88-5.07 6.982-7.364-1.11-1.46-1.957-2.907-2.536-4.343-.58-1.458-.87-2.883-.87-4.272 0-3.75 1.286-6.762 3.857-9.03 2.57-2.293 5.985-3.44 10.246-3.44 1.922 0 3.832.21 5.73.626 1.923.418 3.868 1.043 5.837 1.876v6.322c-2.015-1.09-3.937-1.91-5.766-2.467-1.83-.58-3.532-.867-5.106-.87-2.432.003-4.41.65-5.94 1.948-1.505 1.273-2.257 2.93-2.257 4.967 0 1.18.337 2.373 1.01 3.577.694 1.18 2.094 2.86 4.202 5.037" id="hero-and" opacity="0" fill="#ffffff" stroke="#fe2f2b" stroke-width="1.801"/>
  <path d="M379.69 82.604v61.515h15.865v-21.35h10.46c2.626 0 5.044-.2 7.258-.59l16.664-23.966c-.777-4.3-2.735-7.767-5.906-10.38-4.174-3.487-10.187-5.23-18.015-5.23h-26.327zm15.866 11.475h8.774c3.076 0 5.455.753 7.13 2.236 1.676 1.483 2.532 3.582 2.532 6.328 0 2.747-.856 4.903-2.53 6.414-1.677 1.482-4.056 2.235-7.132 2.235h-8.775V94.08zm-59.44-1.096c-4.834 0-8.583 1.785-11.248 5.356-2.664 3.57-3.996 8.597-3.996 15.08 0 6.453 1.332 11.466 3.996 15.036 2.665 3.57 6.414 5.356 11.247 5.356 4.86 0 8.623-1.785 11.288-5.356 2.664-3.57 3.996-8.583 3.996-15.037 0-6.484-1.333-11.51-3.997-15.08-2.665-3.57-6.427-5.356-11.29-5.356m0-11.494c9.89 0 17.634 2.83 23.237 8.487 5.603 5.658 8.404 13.472 8.404 23.442 0 9.94-2.802 17.74-8.405 23.4-5.604 5.656-13.35 8.485-23.237 8.485-9.86 0-17.606-2.83-23.236-8.487-5.603-5.66-8.404-13.46-8.404-23.4 0-9.97 2.8-17.785 8.404-23.443 5.63-5.657 13.375-8.486 23.235-8.486m-78.85 1.112h15.86v49.52h27.85v11.988h-43.71V82.603m-57.676 0h42.805v11.99h-26.944v11.45h25.338v11.99h-25.338v14.09h27.85v11.987h-43.71V82.603m-72.59 0h15.943l16.314 45.4 16.273-45.4h15.944l-22.78 61.507h-18.91l-22.784-61.507m-50.344 0h42.805v11.99H92.514v11.45h25.337v11.99H92.514v14.09h27.85v11.987h-43.71V82.603M22.476 94.59v37.53h5.686c6.482 0 11.426-1.605 14.832-4.82 3.433-3.212 5.15-7.88 5.15-14.006 0-6.097-1.704-10.738-5.11-13.924-3.405-3.185-8.362-4.778-14.872-4.778h-5.686m-15.86-11.99h16.726c9.338 0 16.287.673 20.846 2.02 4.587 1.317 8.514 3.57 11.783 6.755 2.885 2.774 5.027 5.974 6.428 9.6 1.4 3.625 2.1 7.73 2.1 12.317 0 4.642-.7 8.79-2.1 12.442-1.4 3.625-3.543 6.825-6.427 9.6-3.295 3.185-7.25 5.45-11.864 6.797-4.614 1.318-11.535 1.977-20.764 1.977H6.616V82.603" id="hero-develop" opacity="0" fill="#ffffff" stroke="#fe2f2b" stroke-width="1.801"/>
  <path d="M384.8 156.044v.712h-6.692c.063 1.002.364 1.767.902 2.294.543.522 1.297.783 2.262.783.56 0 1.1-.07 1.622-.205.527-.137 1.05-.343 1.566-.617v1.378c-.522.222-1.057.39-1.606.506-.548.117-1.104.174-1.67.174-1.412 0-2.533-.41-3.36-1.234-.824-.822-1.235-1.935-1.235-3.338 0-1.45.39-2.6 1.17-3.45.785-.853 1.842-1.28 3.17-1.28 1.193 0 2.134.384 2.825 1.154.696.764 1.045 1.806 1.045 3.124m-1.455-.427c-.01-.796-.235-1.432-.672-1.907-.433-.474-1.008-.71-1.725-.712-.812 0-1.464.23-1.954.69-.485.458-.765 1.104-.84 1.937l5.19-.014m-10.576-2.287v-4.794h1.456v12.307h-1.456v-1.33c-.306.528-.693.92-1.163 1.18-.464.253-1.023.38-1.677.38-1.07 0-1.943-.428-2.618-1.282-.67-.854-1.005-1.978-1.005-3.37 0-1.392.335-2.516 1.005-3.37.675-.854 1.548-1.282 2.618-1.282.654 0 1.213.13 1.677.388.47.254.857.644 1.163 1.17m-4.96 3.095c0 1.07.22 1.912.657 2.523.443.606 1.05.91 1.82.91s1.376-.304 1.82-.91c.442-.612.663-1.453.663-2.524 0-1.07-.22-1.91-.664-2.516-.443-.61-1.05-.917-1.82-.917s-1.376.307-1.82.918c-.437.607-.656 1.445-.656 2.516m-7.34-3.416c-.78 0-1.4.306-1.85.918-.456.607-.683 1.44-.683 2.5s.224 1.896.673 2.508c.453.606 1.073.91 1.86.91.774 0 1.388-.306 1.842-.918.454-.612.68-1.445.68-2.5 0-1.05-.226-1.88-.68-2.492-.454-.617-1.068-.925-1.843-.926m0-1.234c1.266 0 2.26.412 2.982 1.234.72.823 1.082 1.962 1.082 3.418 0 1.45-.36 2.59-1.084 3.417-.723.823-1.717 1.234-2.983 1.234-1.27 0-2.268-.41-2.99-1.234-.718-.828-1.076-1.967-1.076-3.417 0-1.456.36-2.595 1.076-3.418.722-.822 1.72-1.234 2.99-1.234m-5.98.554v1.36c-.41-.226-.825-.395-1.242-.505-.41-.117-.828-.174-1.25-.175-.944 0-1.677.3-2.2.902-.52.596-.782 1.435-.782 2.516 0 1.08.26 1.922.783 2.523.522.594 1.255.892 2.2.892.42 0 .838-.055 1.25-.166.416-.116.83-.287 1.24-.514v1.345c-.405.19-.827.332-1.265.427-.432.095-.893.142-1.384.142-1.334 0-2.394-.42-3.18-1.257-.786-.84-1.18-1.97-1.18-3.395 0-1.445.397-2.582 1.188-3.41.796-.828 1.885-1.242 3.267-1.242.45 0 .888.048 1.315.143.427.09.84.227 1.242.41m-16.25-3.29h1.598v11.81h-1.598v-11.81M326.545 153c-.78 0-1.397.306-1.85.918-.455.607-.68 1.44-.68 2.5s.223 1.896.67 2.508c.455.606 1.074.91 1.86.91.775 0 1.39-.306 1.843-.918.454-.612.68-1.445.68-2.5 0-1.05-.226-1.88-.68-2.492-.453-.617-1.068-.925-1.843-.926m0-1.234c1.266 0 2.26.412 2.983 1.234.722.823 1.083 1.962 1.083 3.418 0 1.45-.36 2.59-1.08 3.417-.724.823-1.718 1.234-2.984 1.234-1.27 0-2.268-.41-2.99-1.234-.717-.828-1.076-1.967-1.076-3.417 0-1.456.358-2.595 1.075-3.418.722-.822 1.72-1.234 2.99-1.234m-6.235.476v1.376c-.41-.21-.837-.37-1.28-.475-.443-.103-.902-.156-1.377-.156-.722 0-1.265.11-1.63.332-.358.22-.537.554-.537.997 0 .337.13.604.387.8.26.188.778.37 1.56.544l.497.11c1.034.223 1.767.537 2.2.943.437.4.656.96.656 1.684 0 .822-.327 1.474-.98 1.954-.65.48-1.543.72-2.683.72-.474 0-.97-.048-1.487-.143-.51-.09-1.052-.227-1.622-.41v-1.504c.538.28 1.068.49 1.59.635.523.137 1.04.205 1.55.205.687 0 1.214-.117 1.583-.35.37-.236.554-.568.554-.996 0-.395-.133-.698-.402-.91-.263-.21-.846-.413-1.748-.608l-.507-.12c-.902-.19-1.553-.48-1.954-.87-.403-.395-.603-.936-.603-1.62 0-.834.295-1.478.886-1.93.59-.455 1.43-.682 2.515-.682.537 0 1.044.04 1.518.12.475.08.913.197 1.313.355m-15.26 1.083v-4.794h1.457v12.307h-1.456v-1.33c-.303.528-.69.92-1.16 1.18-.465.253-1.024.38-1.68.38-1.07 0-1.94-.428-2.616-1.282-.67-.854-1.005-1.978-1.005-3.37 0-1.392.334-2.516 1.004-3.37.675-.854 1.548-1.282 2.618-1.282.655 0 1.214.13 1.68.388.468.254.856.644 1.16 1.17m-4.96 3.095c0 1.07.22 1.912.658 2.523.443.606 1.05.91 1.82.91s1.376-.304 1.82-.91c.442-.612.663-1.453.663-2.524 0-1.07-.22-1.91-.663-2.516-.443-.61-1.05-.917-1.82-.917s-1.376.307-1.82.918c-.437.607-.656 1.445-.656 2.516m-3.792-.924v5.348h-1.456v-5.3c0-.84-.163-1.466-.49-1.883-.327-.417-.817-.625-1.47-.625-.787 0-1.407.25-1.86.752-.454.5-.68 1.184-.68 2.05v5.006h-1.464v-8.86h1.463v1.376c.348-.532.757-.93 1.226-1.194.477-.264 1.023-.396 1.64-.396 1.018 0 1.788.317 2.31.95.52.627.783 1.553.783 2.776m-13.275.894c-1.176 0-1.99.135-2.445.404-.453.27-.68.728-.68 1.376 0 .517.17.928.506 1.234.34.3.805.45 1.39.45.807 0 1.453-.284 1.94-.853.49-.575.734-1.337.734-2.286v-.327h-1.447m2.903-.6v5.054h-1.455v-1.345c-.332.538-.746.936-1.242 1.195-.495.253-1.102.38-1.82.38-.906 0-1.63-.254-2.167-.76-.532-.512-.8-1.195-.8-2.05 0-.996.334-1.747.998-2.253.67-.507 1.667-.76 2.99-.76h2.04v-.142c0-.67-.22-1.187-.663-1.55-.436-.37-1.053-.554-1.85-.555-.506 0-1 .06-1.48.182-.48.12-.94.303-1.383.545v-1.345c.533-.204 1.05-.357 1.55-.457.502-.106.99-.16 1.464-.16 1.283 0 2.24.334 2.873.998.632.667.95 1.674.95 3.024m-14.48.26v.712h-6.69c.062 1.002.362 1.767.9 2.294.544.522 1.3.783 2.263.783.56 0 1.1-.07 1.622-.205.527-.137 1.05-.343 1.566-.617v1.378c-.522.222-1.057.39-1.606.506-.548.117-1.105.174-1.67.174-1.413 0-2.533-.41-3.36-1.234-.824-.822-1.235-1.935-1.235-3.338 0-1.45.39-2.6 1.17-3.45.786-.853 1.844-1.28 3.173-1.28 1.192 0 2.133.384 2.824 1.154.696.764 1.044 1.806 1.044 3.124m-1.455-.427c-.013-.796-.237-1.432-.675-1.907-.432-.474-1.007-.71-1.724-.712-.812 0-1.463.23-1.953.69-.486.458-.765 1.104-.84 1.937l5.19-.014m-9.04-.12v5.348H259.5v-5.3c0-.84-.163-1.466-.49-1.883-.327-.417-.817-.625-1.47-.625-.787 0-1.407.25-1.86.752-.454.5-.68 1.184-.68 2.05v5.006h-1.464v-12.31H255v4.826c.348-.532.756-.93 1.226-1.194.474-.264 1.02-.396 1.637-.396 1.018 0 1.788.317 2.31.95.522.627.783 1.553.783 2.776m-12.286-6.028v2.516h3v1.13h-3v4.81c0 .723.1 1.188.294 1.393.2.208.603.31 1.21.31h1.495v1.22h-1.497c-1.123 0-1.9-.21-2.326-.626-.427-.422-.64-1.186-.64-2.294v-4.81h-1.07v-1.132h1.07v-2.516h1.463m-7.348 6.922c-1.176 0-1.99.135-2.445.404-.453.27-.68.728-.68 1.376 0 .517.17.928.506 1.234.343.3.807.45 1.393.45.806 0 1.453-.284 1.938-.853.49-.575.735-1.337.735-2.286v-.327h-1.45m2.904-.6v5.054h-1.456v-1.345c-.333.538-.747.936-1.243 1.195-.495.253-1.102.38-1.82.38-.906 0-1.63-.254-2.167-.76-.532-.512-.8-1.195-.8-2.05 0-.996.334-1.747.998-2.253.67-.507 1.667-.76 2.99-.76h2.04v-.142c0-.67-.22-1.187-.663-1.55-.438-.37-1.055-.554-1.85-.555-.507 0-1 .06-1.48.182-.48.12-.942.303-1.385.545v-1.345c.533-.204 1.05-.357 1.55-.457.502-.106.99-.16 1.464-.16 1.282 0 2.24.334 2.872.998.633.667.95 1.674.95 3.024m-9.318.26v.712h-6.692c.063 1.002.363 1.767.9 2.294.545.522 1.3.783 2.264.783.56 0 1.1-.07 1.622-.205.527-.137 1.05-.343 1.566-.617v1.378c-.522.222-1.058.39-1.606.506-.548.117-1.105.174-1.67.174-1.413 0-2.533-.41-3.36-1.234-.824-.822-1.235-1.935-1.235-3.338 0-1.45.39-2.6 1.17-3.45.786-.853 1.844-1.28 3.173-1.28 1.192 0 2.133.384 2.824 1.154.696.764 1.044 1.806 1.044 3.124m-1.456-.427c-.01-.796-.234-1.432-.672-1.907-.432-.474-1.007-.71-1.724-.712-.813 0-1.464.23-1.954.69-.486.458-.765 1.104-.84 1.937l5.19-.014m-7.317-2.27c-.164-.096-.343-.165-.538-.207-.19-.047-.4-.072-.633-.072-.823 0-1.455.27-1.898.81-.438.532-.657 1.3-.657 2.3v4.67h-1.464v-8.86h1.464v1.375c.306-.538.704-.936 1.195-1.194.49-.263 1.086-.395 1.787-.395.1 0 .21.014.33.024.12.013.256.03.404.055l.008 1.495m-9.057 3.076c0-1.07-.22-1.91-.664-2.516-.436-.61-1.04-.917-1.81-.917s-1.377.306-1.82.917c-.437.607-.656 1.445-.656 2.516 0 1.07.22 1.912.656 2.523.442.605 1.05.91 1.82.91s1.373-.305 1.81-.91c.444-.613.665-1.454.665-2.525m-4.952-3.093c.306-.528.69-.918 1.155-1.17.47-.26 1.028-.39 1.677-.39 1.076 0 1.95.43 2.618 1.283.675.854 1.013 1.978 1.013 3.37 0 1.392-.338 2.516-1.013 3.37-.67.854-1.542 1.28-2.618 1.28-.65 0-1.208-.125-1.677-.378-.464-.26-.85-.652-1.155-1.18v1.33h-1.464v-12.31h1.462v4.795m-11.28-4.295h1.598v11.81h-1.598v-11.81" id="hero-tagline" opacity="0" fill="#fe2f2b"/>
  <path d="M292.208 8.057h17.715l22.37 42.186V8.057h15.038v61.508h-17.713l-22.37-42.187v42.187H292.21V8.057m-13.927 56.935c-3.955 1.923-8.06 3.364-12.318 4.326-4.257.96-8.65 1.442-13.183 1.442-10.245 0-18.36-2.857-24.348-8.57-5.987-5.74-8.98-13.512-8.98-23.317 0-9.915 3.047-17.715 9.145-23.4 6.095-5.686 14.444-8.53 25.046-8.53 4.092 0 8.006.386 11.74 1.155 3.764.77 7.307 1.91 10.63 3.42v12.73c-3.433-1.95-6.852-3.406-10.258-4.368-3.38-.96-6.77-1.44-10.177-1.44-6.316 0-11.19 1.77-14.624 5.313-3.406 3.516-5.108 8.555-5.108 15.12 0 6.51 1.647 11.535 4.943 15.078 3.297 3.545 7.98 5.316 14.05 5.316 1.648 0 3.17-.096 4.573-.288 1.428-.22 2.705-.55 3.83-.99V46.042h-9.68v-10.63h24.718v29.58M191.52 8.058h15.862v61.508h-15.86V8.057m-18.005 1.936V23.01c-3.378-1.51-6.674-2.65-9.887-3.418-3.214-.77-6.248-1.153-9.105-1.153-3.79 0-6.59.52-8.404 1.563-1.81 1.044-2.717 2.664-2.717 4.86 0 1.65.604 2.94 1.813 3.874 1.235.906 3.46 1.69 6.674 2.348l6.755 1.36c6.84 1.373 11.7 3.46 14.584 6.262 2.882 2.8 4.324 6.784 4.324 11.947 0 6.784-2.02 11.838-6.056 15.16-4.01 3.297-10.15 4.945-18.417 4.945-3.9 0-7.813-.37-11.74-1.114-3.93-.74-7.855-1.84-11.783-3.296V52.963c3.927 2.088 7.717 3.667 11.37 4.738 3.68 1.045 7.223 1.566 10.63 1.566 3.46 0 6.11-.576 7.95-1.73 1.84-1.153 2.76-2.8 2.76-4.944 0-1.92-.63-3.404-1.895-4.448-1.236-1.044-3.72-1.977-7.456-2.8l-6.14-1.36c-6.152-1.32-10.656-3.42-13.513-6.304-2.83-2.884-4.243-6.77-4.243-11.66 0-6.124 1.977-10.834 5.932-14.13 3.955-3.296 9.64-4.944 17.056-4.944 3.378 0 6.853.26 10.423.783 3.57.494 7.266 1.25 11.083 2.265M73.036 8.057h42.805v11.988H88.9v11.453h25.337v11.99H88.897v14.088h27.85v11.99h-43.71V8.056M18.86 20.045v37.53h5.686c6.482 0 11.426-1.606 14.832-4.82 3.433-3.213 5.15-7.88 5.15-14.007 0-6.1-1.704-10.74-5.11-13.927-3.405-3.186-8.362-4.78-14.872-4.78H18.86M3 8.058h16.726c9.338 0 16.287.673 20.846 2.018 4.587 1.32 8.514 3.57 11.783 6.757 2.884 2.774 5.026 5.974 6.427 9.6 1.4 3.624 2.1 7.73 2.1 12.317 0 4.64-.7 8.788-2.1 12.44-1.4 3.626-3.543 6.826-6.427 9.6-3.296 3.186-7.25 5.452-11.865 6.797-4.614 1.32-11.535 1.978-20.764 1.978H3V8.057" id="hero-design" opacity="0" fill="#ffffff" stroke="#fe2f2b" stroke-width="1.801"/>
</svg>
