<svg xmlns="http://www.w3.org/2000/svg" width="100%" height="100%" viewBox="0 0 120 120" id="hs-logo">
  <g id="hs" fill="none" stroke="#fe2f2b" stroke-width="1.801">
    <path d="M60 12.072l-16.098 9.512c-1.463 1.756-3.22 4.83-3.22 8.488 0 3.66.878 6.878 2.49 8.487l32.78 10.243v-27.22L60 12.073z" id="hs1"/>
    <path d="M83.707 73.536l9.95-5.416V30.657l-10.24-5.415v31.025c1.462 1.757 2.925 4.978 2.925 8.635 0 3.806-1.026 6.878-2.635 8.634z" id="hs2"/>
    <path d="M60 87.002l16.1-9.516c2.924-1.756 2.924-4.828 2.924-8.486 0-3.658-.73-6.88-2.34-8.488L43.902 50.268v27.22L60 87z" id="hs3"/>
    <path d="M36.73 25.39l-8.926 5.414v37.464l8.78 5.415V42.658C35.12 40.9 33.95 37.68 33.95 34.023c0-3.66 1.172-6.877 2.78-8.633z" id="hs4"/>
  </g>
</svg>
