<svg xmlns="http://www.w3.org/2000/svg" width="120" height="120" id="laptop">
  <path d="M68.287 59.652l-18.105-5.71c-.835-.836-1.392-2.646-1.392-4.735 0-1.95.975-3.76 1.81-4.735l8.913-5.293 8.774 5.292v15.18zm-26.46-10.027v20.61l4.874 2.926V56.17c-.835-.975-1.392-2.785-1.392-4.735 0-2.09.696-3.76 1.532-4.735l-5.014 2.925zM50.6 60.487v15.04l8.913 5.294 8.912-5.292c1.666-.974 1.666-2.646 1.666-4.735 0-2.09-.41-3.76-1.246-4.735L50.6 60.488zM72.465 46.56v17.13c.836.975 1.67 2.786 1.67 4.736 0 2.09-.556 3.76-1.39 4.735l5.43-2.924v-20.61l-5.71-3.065z" id="logo" fill="none" stroke="#000" stroke-width="1.393" stroke-miterlimit="10"/>
  <path d="M14.705 81.893V26.028h90.59v62.66H1.87v5.284h116.26v-5.285h-9.06" id="back" fill="none" stroke="#000" stroke-width="1.495"/>
  <path d="M43.852 89.16v1.868h32.296v-2.27" id="btn1" fill="none" stroke="#000" stroke-width="1.495"/>
  <path d="M61.05 28.888c0 .58-.47 1.05-1.05 1.05-.58 0-1.05-.47-1.05-1.05 0-.58.47-1.05 1.05-1.05.58 0 1.05.47 1.05 1.05z" id="btn2" fill="#1a1a1a" stroke="#ff32c0" stroke-width=".206" stroke-opacity="0"/>
  <path d="M111.42 90.35h3.337v.833h-3.337z" id="btn3" stroke="#ff32c0" stroke-width=".661" stroke-opacity="0"/>
</svg>
