<svg xmlns="http://www.w3.org/2000/svg" viewBox="0 0 120 120" width="100%" height="100%" id="me">
  <g id="jacket">
    <path d="M 86.909091,56.181818 103.27273,76.454545 77.636364,73.181818 z" id="jacket-hood" fill="#999"/>
    <path id="jacket-outer" d="M 120.07959,120.51426 119.3082,92.229988 114.1656,84.001837 106.70884,76.030815 89.995409,71.14535 38.055201,69.859701 13.627876,76.287944 1.2856487,88.373042 l -1.54277844,4.628335 0,27.512883 z" fill="#b3b3b3"/>
    <path id="jacket-maroon" d="M 6.9425029,120 14.913525,83.230447 47.311872,76.030815 71.482067,75.002296 99.252079,83.487577 112.62283,120.51426 z" fill="#722626"/>
    <path id="jacket-zipline" d="m 60.682618,90.43008 0,30.08418 -5.399724,-0.25713 -0.25713,-29.31279 z" fill="#999"/>
    <path id="jacket-hood-mouth" d="M32.074 50.94l-10.65 9.766 4.16 12.16 31.78 20.9L86.15 65.844c.33-3.31.663-6.623.995-9.934l-11.812-6.34" fill="#333"/>
    <path d="M35.697 54.363l-9.03 8.28 3.526 10.315 26.952 17.724 24.413-23.68.846-8.426-10.018-5.374" id="jacket-inner-hood" fill="#b3b3b3"/>
    <path d="M42.294 58.764l-6.227 7.297 2.432 9.09 18.583 15.62L73.918 69.9l.584-7.425-6.908-4.737" id="jacket-inner-most-hood" fill="#666"/>
    <path id="shimo-kamba-left-back" d="m 43.97,92.483 -2.068,1.033 -1.83,-1.495 0.237,-2.524 2.066,-1.03 1.83,1.493 z" fill="#1a1a1a"/>
    <path id="shimo-kamba-left" d="m 43.486,92.12 -1.52,0.782 -1.347,-1.13 0.173,-1.914 1.52,-0.78 1.347,1.13 z" fill="#666"/>
    <path d="M42.78 110.523h-.93V90.998h.93v19.525z" id="kamba-back-left" fill="#1b1464"/>
    <path d="M42.315 110.523h-.93V90.998h.93v19.525z" id="kamba-left" fill="#2e3192"/>
    <path id="shimo-kamba-right-back" d="m 71.173,92.483 -2.068,1.033 -1.83,-1.495 0.238,-2.524 2.067,-1.03 1.83,1.493 z" fill="#1a1a1a"/>
    <path id="shimo-kamba-right" d="m 70.69,92.12 -1.522,0.782 -1.345,-1.13 0.175,-1.914 1.52,-0.78 1.347,1.13 z" fill="#666"/>
    <path d="M68.725 90.84h1.16v27.26h-1.16V90.84z" id="kamba-back-right" fill="#1b1464"/>
    <path d="M68.725 90.84h.696v27.26h-.695V90.84z" id="kamba-right" fill="#2e3192"/>
  </g>
  <g id="uso">
    <g id="zeFace">
      <path id="neck" d="M57.988 68.884l-12.604-3.21-3.345-2.397c.912 7.69 1.9 14.985 1.9 14.985l5.623 6.168 8.232 3.21 7.905-7.964 3.017-7.837-.465-9.713-10.264 6.756z" fill="#8c6239"/>
      <path id="neck-shadow" d="m 68.47,62.012 -1.684,1.466 -0.81,15.555 2.86,-7.094 z m -26.27,1.791 1.5,1.34 4.616,18.257 -4.554,-4.694 -1.81,-14.898" fill="#754b28"/>
      <path d="m 41.953,62.973 3.36,2.29 12.754,3.572 10.403,-7.21 0.06,2.056 -10.48,6.94 -12.977,-3.66 -2.933,-1.544 z" id="chin-shadow" opacity=".6" fill="#1a1a1a"/>
      <path d="M31.532 28.16c0 6.038 5.24 31.346 5.24 31.346l8.612 6.167 12.604 3.21 12.104-7.964 4.616-7.838-2.245-30.576s-24.708-35.843-40.93 5.652z" id="face" fill="#8c6239"/>
      <path id="left-ear" d="m 33.35,42.753 -1.794,-0.432 -0.496,2.537 2.36,9.457 1.598,1.15 0.525,-0.943 z" fill="#8c6239"/>
      <path id="right-ear" d="m 73.46,35.738 1.623,-0.898 1.122,2.312 0.127,9.765 -1.25,1.54 -0.746,-0.77 z" fill="#8c6239"/>
      <path d="m 33.32,45.246 -0.748,-0.75 -0.285,2.41 0.713,0.952 v 1.884 l 0.702,1.283 0.89,-1.88 -0.76,-3.342 z" id="inner-ear-left" fill="#603813"/>
      <path d="m 74.108,37.584 0.564,-0.904 0.858,2.266 -0.44,1.083 0.42,1.834 -0.447,1.426 -1.306,-1.618 -0.012,-3.43 z" id="inner-ear-right" fill="#603813"/>
      <path d="M73.688 35.625l-.25.688-6.782 7.562.72 7.938-.032.062-4.188 10.688-1.437-2.25-10.595 1.406-1.875 2.843-4.813-6.938L43.313 48l-9.876-5.188-.156-.187-.093-.125L36.5 59.78l8.813 6.157 2.437.594 10.313 2.814 6.437-4.656 5.688-3.657 4.656-7.874-1.156-17.53z" id="beard" fill="#1a1a1a"/>
    </g>
    <g id="eye">
      <path id="eye-brow-shadow-right" d="M57.514 28.993l.178 3.684L61.772 30l1.082-3.897" fill="#754b28"/>
      <path id="eye-brow-right" d="m 55.393,27 2.12,1.993 8.57,-4.583 1.877,0.93 -1.726,-2.22 0.494,-0.647 -11.015,4.25 -0.604,-0.118 z" fill="#1a1a1a"/>
      <path id="eye-lashes-right" d="m 57.656,32.712 2.215,-2.777 4.795,-0.35 2.574,2.43 z" fill="#1a1a1a"/>
      <path d="m 57.692,32.677 0.233,0.17 8.782,0.018 0.468,-0.85 z" id="eye-bag-right" fill="#42210b"/>
      <path id="eye-ball-right" d="m 57.692,32.677 2.11,-2.245 4.55,-0.396 2.445,1.852 z" fill="#bdccd4"/>
      <path id="iris-right" d="M63.872 30.88c-.16-.558-.925-.886-1.704-.73-.778.157-1.28.737-1.12 1.3.162.558.925.884 1.704.727.78-.156 1.28-.737 1.12-1.296z" fill="#666"/>
      <path id="iris-inner-right" d="M61.778 31.403c.092.397.49.638.893.532.404-.104.658-.513.568-.912-.09-.397-.49-.638-.892-.532-.404.106-.657.515-.567.914z" fill="#603813"/>
      <path id="pupil-right" d="M62.066 31.27c.046.21.245.336.442.284.197-.05.32-.262.273-.47-.047-.21-.244-.337-.44-.285-.198.05-.32.26-.273.47z" fill="#1a1a1a"/>
      <path d="M62.707 30.908c.067.255.353.41.64.346.29-.067.47-.327.404-.582-.062-.254-.35-.41-.64-.342-.287.064-.467.324-.402.578z" id="eye-reflection-right" fill="#fff"/>
      <path id="eye-bag-shadow-right" d="M57.054 33l.675 1.1 3.494.32-4.068.104" fill="#754b28"/>
      <path id="eye-brow-shadow-left" d="M47.38 29.766l2.164 4.398-4.99-2.15-2.58-3.64" fill="#754b28"/>
      <path id="eye-brow-left" d="m 49.004,27.324 -1.623,2.442 -9.357,-2.442 -1.622,1.35 1.186,-2.57 -0.624,-0.514 11.67,1.542 0.56,-0.257 z" fill="#1a1a1a"/>
      <path id="eye-lashes-left" d="m 39.916,34.693 2.257,-2.744 4.796,-0.28 2.54,2.466 z" fill="#1a1a1a"/>
      <path id="eye-bag-left" d="m 49.51,34.137 -0.303,0.3 -8.72,1.253 -0.516,-1.058 z" fill="#42210b"/>
      <path id="eye-ball-left" d="m 40.413,34.506 2.21,-2.14 4.565,-0.17 2.356,1.968 z" fill="#bdccd4"/>
      <path id="iris-left" d="M46.16 32.953c-.154-.563-.914-.898-1.695-.754-.78.144-1.29.716-1.136 1.28.15.56.91.897 1.69.753.782-.145 1.29-.717 1.14-1.28z" fill="#666"/>
      <path id="iris-inner-left" d="M44.06 33.445c.084.4.48.646.884.548.405-.1.663-.504.578-.905-.083-.4-.48-.646-.884-.547-.405.1-.663.507-.578.906z" fill="#603813"/>
      <path id="pupil-left" d="M44.348 33.316c.045.208.24.34.44.29.198-.048.323-.257.278-.465-.044-.207-.24-.34-.44-.29-.198.048-.323.258-.278.467z" fill="#1a1a1a"/>
      <path id="eye-reflection-left" d="M44.994 32.965c.063.256.347.413.638.354.288-.064.473-.32.41-.576-.062-.255-.347-.415-.635-.354-.29.062-.474.32-.413.575z" fill="#fff"/>
      <path id="eye-bag-shadow-left" d="M50.313 34.41l-.415 1.18-3.64 1.177 4.367-.93" fill="#754b28"/>
    </g>
    <g id="zeNose">
      <path d="M50.264 32.2l1.914 2.308-1.296 6.484.413-6.118" id="nose-shadow" fill="#603813"/>
      <path id="nose-shadow2" d="M56.734 31.554l-1.58 2.56 2.16 6.235-1.235-6" fill="#603813"/>
      <path id="nose-shadow3" d="M52.55 39.993l.343-3.292m-.097-.01l.25.03-.387 3.286-.25-.03z" fill="#603813"/>
      <path id="nose" d="M56.205 40.552l-3.785.325-1.8.952 1.984.624.493-.042.07-.465.833-.097.286.462.377-.034.015-.487 1.12-.09.21.464.382-.032 1.8-.952" fill="#42210b"/>
    </g>
    <g id="lips">
      <path d="M51.114 52.735l.378.964 8.713-1.134.25-1.004" id="lip-shadow" fill="#754b28"/>
      <path id="moustache-left" d="M45.953 50.146l4.31-3.204 4.24-.826-.03-1.062-.35.214-4.457.79.152.13-4.182 4.075" fill="#1a1a1a"/>
      <path id="moustache-right" d="M64.68 47.912l-4.898-2.128-4.31.173-.204-1.043.388.13 4.515-.26-.117.162 4.962 3.008" fill="#1a1a1a"/>
      <path id="soulpatch" d="m 54.39,52.86 2.506,-0.303 -1.24,1.758 z" fill="#1a1a1a"/>
      <path id="upper-lip" d="m 59.43,46.444 -3.073,0.387 -0.88,1.198 -1.143,-0.943 -4.245,0.532 -4.16,3.145 5.183,1.975 9.34,-1.172 4.16,-3.144 z" fill="#42210b"/>
      <path d="m 45.67,50.8 5.35,2.04 9.485,-1.152 4.37,-3.307 z" id="lower-lip" fill="#a67c52"/>
    </g>
  </g>
</svg>
