<svg xmlns="http://www.w3.org/2000/svg" width="120" height="120" id="phone">
  <path d="M51.772 7.135h16.456" id="earpiece" fill="none" stroke="#000" stroke-width="2.582" stroke-miterlimit="10"/>
  <path d="M61.728 108.238c0 .954-.773 1.728-1.728 1.728s-1.728-.774-1.728-1.728c0-.955.773-1.728 1.728-1.728s1.728.773 1.728 1.728z" id="btn" fill="#1a1a1a" stroke="#ff32c0" stroke-width=".339" stroke-opacity="0"/>
  <path d="M68.287 59.652l-18.105-5.71c-.835-.836-1.392-2.646-1.392-4.735 0-1.95.975-3.76 1.81-4.735l8.913-5.293 8.774 5.292v15.18zm-26.46-10.027v20.61l4.874 2.926V56.17c-.835-.975-1.392-2.785-1.392-4.735 0-2.09.696-3.76 1.532-4.735l-5.014 2.925zM50.6 60.487v15.04l8.913 5.294 8.912-5.292c1.666-.974 1.666-2.646 1.666-4.735 0-2.09-.41-3.76-1.246-4.735L50.6 60.488zM72.465 46.56v17.13c.836.975 1.67 2.786 1.67 4.736 0 2.09-.556 3.76-1.39 4.735l5.43-2.924v-20.61l-5.71-3.065z" id="logo" fill="none" stroke="#000" stroke-width="1.393" stroke-miterlimit="10"/>
  <path d="M93.054 13.073V1.905H26.946v16.752h65.692v81.77-.798" id="back-top" fill="none" stroke="#000" stroke-width="1.613"/>
  <path d="M27.586 23.746v80.204h65.66v14.13h-66.49v-9.56" id="back-botttom" fill="none" stroke="#000" stroke-width="1.646"/>
</svg>
